<svg width="40" height="40" viewBox="0 0 40 40" fill="none" xmlns="http://www.w3.org/2000/svg">
<path d="M35.2103 4.48242H5.7512C5.04274 4.48242 4.47037 5.05479 4.47037 5.76325V35.2224C4.47037 35.9308 5.04274 36.5032 5.7512 36.5032H35.2103C35.9188 36.5032 36.4911 35.9308 36.4911 35.2224V5.76325C36.4911 5.05479 35.9188 4.48242 35.2103 4.48242ZM31.5119 13.8285H28.9543C26.949 13.8285 26.5607 14.7811 26.5607 16.182V19.268H31.3478L30.7234 24.0991H26.5607V36.5032H21.5695V24.1032H17.3948V19.268H21.5695V15.7057C21.5695 11.571 24.0951 9.31756 27.7855 9.31756C29.5546 9.31756 31.0716 9.44965 31.5159 9.50968V13.8285H31.5119Z" fill="white"/>
</svg>
