<svg width="46" height="46" viewBox="0 0 46 46" fill="none" xmlns="http://www.w3.org/2000/svg">
<path d="M23 26.3353C27.2282 26.3353 30.6667 22.8968 30.6667 18.6686C30.6667 14.4405 27.2282 11.002 23 11.002C18.7718 11.002 15.3333 14.4405 15.3333 18.6686C15.3333 22.8968 18.7718 26.3353 23 26.3353ZM23 14.8353C25.1141 14.8353 26.8333 16.5545 26.8333 18.6686C26.8333 20.7827 25.1141 22.502 23 22.502C20.8859 22.502 19.1667 20.7827 19.1667 18.6686C19.1667 16.5545 20.8859 14.8353 23 14.8353Z" fill="white"/>
<path d="M21.8884 41.3118C22.2128 41.5435 22.6014 41.668 23.0001 41.668C23.3987 41.668 23.7873 41.5435 24.1117 41.3118C24.6944 40.8997 38.389 31.0116 38.3334 18.6683C38.3334 10.2139 31.4545 3.33496 23.0001 3.33496C14.5457 3.33496 7.66673 10.2139 7.66673 18.6587C7.61115 31.0116 21.3057 40.8997 21.8884 41.3118ZM23.0001 7.16829C29.3423 7.16829 34.5001 12.326 34.5001 18.6779C34.5403 27.184 26.0897 34.822 23.0001 37.327C19.9123 34.82 11.4598 27.1802 11.5001 18.6683C11.5001 12.326 16.6578 7.16829 23.0001 7.16829Z" fill="white"/>
</svg>
