<svg width="61" height="71" viewBox="0 0 61 71" fill="none" xmlns="http://www.w3.org/2000/svg">
<path d="M18.8724 0.156345C18.529 0.158557 18.1915 0.246275 17.8904 0.411579C16.9018 0.959548 16.5392 2.22963 17.087 3.21752L19.3189 7.24783C13.9414 10.5748 10.3782 16.2579 10.3782 22.7442V23.9494C9.34531 22.7611 7.82727 22.0109 6.13109 22.0109C3.02328 22.0109 0.5 24.5342 0.5 27.6417V44.9876C0.5 48.0949 3.02352 50.6185 6.13109 50.6185C7.82727 50.6185 9.34531 49.868 10.378 48.6797V51.1095C10.378 54.3853 13.0585 57.0657 16.3344 57.0657H17.8456V64.782C17.8456 67.8898 20.3691 70.4131 23.4767 70.4131C26.5843 70.4131 29.1076 67.8895 29.1076 64.782V57.0657H31.7223V64.782C31.7223 67.8898 34.2458 70.4131 37.3534 70.4131C40.4609 70.4131 42.9842 67.8895 42.9842 64.782V57.0657H44.4957C47.7713 57.0657 50.4519 54.3853 50.4519 51.1095V48.6797C51.4845 49.868 53.0028 50.6185 54.699 50.6185C57.8066 50.6185 60.3298 48.0949 60.3298 44.9876V27.6417C60.3298 24.5342 57.8066 22.0109 54.699 22.0109C53.0028 22.0109 51.4845 22.7611 50.4519 23.9494V22.9481V22.8907C50.4523 22.8298 50.4519 22.781 50.4519 22.7442C50.4519 16.2591 46.8805 10.5816 41.5048 7.25439L43.7431 3.21752C44.2906 2.22963 43.9283 0.959548 42.9397 0.411579C42.6386 0.246275 42.3011 0.158557 41.9577 0.156345C41.2276 0.149313 40.5111 0.534157 40.1338 1.21502L37.7933 5.44314C35.5048 4.59869 33.0148 4.1358 30.4152 4.1358C27.8178 4.1358 25.3231 4.59377 23.0366 5.43658L20.6963 1.21502C20.3188 0.534157 19.6025 0.149782 18.8724 0.156345Z" fill="white"/>
<path d="M6.13121 23.4775C3.81231 23.4775 1.96707 25.3228 1.96707 27.6417V44.9875C1.96707 47.3065 3.81231 49.1517 6.13121 49.1517C8.45012 49.1517 10.2956 47.3065 10.2956 44.9875V27.6417C10.2956 25.3228 8.45012 23.4775 6.13121 23.4775ZM54.6993 23.4775C52.3802 23.4775 50.535 25.3228 50.535 27.6417V44.9875C50.535 47.3065 52.3802 49.1517 54.6993 49.1517C57.0182 49.1517 58.8635 47.3065 58.8635 44.9875V27.6417C58.8635 25.3228 57.0182 23.4775 54.6993 23.4775Z" fill="#A4C639"/>
<path d="M23.477 43.272C21.1581 43.272 19.3126 45.1172 19.3126 47.4363V64.782C19.3126 67.1009 21.1581 68.9461 23.477 68.9461C25.7959 68.9461 27.6411 67.1009 27.6411 64.782V47.4363C27.6411 45.1172 25.7959 43.272 23.477 43.272ZM37.3536 43.272C35.0345 43.272 33.1893 45.1172 33.1893 47.4363V64.782C33.1893 67.1009 35.0345 68.9461 37.3536 68.9461C39.6725 68.9461 41.5178 67.1009 41.5178 64.782V47.4363C41.5178 45.1172 39.6725 43.272 37.3536 43.272Z" fill="#A4C639"/>
<path d="M18.885 1.62313C18.7865 1.62432 18.6899 1.65061 18.6045 1.69954C18.3075 1.86407 18.21 2.20532 18.3748 2.50297L21.3084 7.80242C15.6647 10.7391 11.8523 16.3198 11.8448 22.7248H48.9851C48.9773 16.3198 45.1652 10.7389 39.5215 7.80242L42.4549 2.50321C42.6199 2.20555 42.5222 1.86407 42.2252 1.69954C42.1398 1.65058 42.0432 1.62428 41.9447 1.62313C41.7337 1.62079 41.5343 1.72625 41.4218 1.92922L38.4499 7.28586C36.019 6.20774 33.2923 5.60235 30.4148 5.60235C27.5374 5.60235 24.8109 6.2075 22.3798 7.28586L19.4079 1.92922C19.3572 1.83519 19.2816 1.75691 19.1895 1.70292C19.0973 1.64894 18.992 1.62134 18.8852 1.62313H18.885ZM11.8448 24.1916V51.1095C11.8436 51.6994 11.9588 52.2838 12.184 52.829C12.4092 53.3743 12.7398 53.8697 13.157 54.2868C13.5741 54.7039 14.0695 55.0345 14.6148 55.2597C15.16 55.4848 15.7444 55.6 16.3343 55.5987H44.4956C45.0856 55.6 45.6699 55.4848 46.2152 55.2596C46.7605 55.0345 47.2559 54.7038 47.673 54.2867C48.0902 53.8696 48.4208 53.3741 48.646 52.8289C48.8711 52.2836 48.9864 51.6992 48.9851 51.1093V24.1918H11.8448V24.1916Z" fill="#A4C639"/>
<path d="M21.844 12.8276C20.9963 12.8276 20.2943 13.5294 20.2943 14.3771C20.2943 15.2251 20.9963 15.9268 21.844 15.9268C22.692 15.9268 23.3937 15.2251 23.3937 14.3771C23.3937 13.5294 22.692 12.8276 21.844 12.8276ZM38.9857 12.8276C38.1377 12.8276 37.436 13.5294 37.436 14.3771C37.436 15.2251 38.1377 15.9268 38.9857 15.9268C39.8334 15.9268 40.5354 15.2251 40.5354 14.3771C40.5354 13.5294 39.8334 12.8276 38.9857 12.8276Z" fill="white"/>
</svg>
