<svg width="40" height="40" viewBox="0 0 40 40" fill="none" xmlns="http://www.w3.org/2000/svg">
<path d="M35.1981 4.48242H5.73899C5.03053 4.48242 4.45816 5.05479 4.45816 5.76325V35.2224C4.45816 35.9308 5.03053 36.5032 5.73899 36.5032H35.1981C35.9066 36.5032 36.4789 35.9308 36.4789 35.2224V5.76325C36.4789 5.05479 35.9066 4.48242 35.1981 4.48242ZM13.9563 31.7681H9.20524V16.4862H13.9563V31.7681ZM11.5828 14.3969C11.0381 14.3969 10.5057 14.2353 10.0529 13.9328C9.6 13.6302 9.24704 13.2001 9.03862 12.6969C8.83019 12.1937 8.77565 11.64 8.88191 11.1058C8.98817 10.5716 9.25044 10.081 9.63556 9.69585C10.0207 9.31072 10.5114 9.04845 11.0455 8.94219C11.5797 8.83594 12.1334 8.89047 12.6366 9.0989C13.1398 9.30733 13.5699 9.66029 13.8725 10.1131C14.1751 10.566 14.3366 11.0984 14.3366 11.6431C14.3326 13.1641 13.0998 14.3969 11.5828 14.3969ZM31.7439 31.7681H26.9968V24.3353C26.9968 22.5622 26.9648 20.2847 24.5272 20.2847C22.0576 20.2847 21.6773 22.2139 21.6773 24.2072V31.7681H16.9343V16.4862H21.4892V18.5756H21.5533C22.1857 17.3748 23.7347 16.106 26.0482 16.106C30.8593 16.106 31.7439 19.272 31.7439 23.3867V31.7681V31.7681Z" fill="white"/>
</svg>
